<?xml version="1.0" encoding="UTF-8"?>
<svg id="Layer_1" data-name="Layer 1" xmlns="http://www.w3.org/2000/svg" viewBox="0 0 511.32 511.32">
  <defs>
    <style>
      .cls-1 {
        fill: #859674;
      }

      .cls-2 {
        fill: #fff;
      }

      .cls-3 {
        fill: #7d6c51;
      }
    </style>
  </defs>
  <path class="cls-2" d="M0,0h511.32v511.32H0V0ZM510.97,255.46C510.97,114.51,396.71.25,255.76.25S.55,114.51.55,255.46s114.26,255.21,255.21,255.21,255.21-114.26,255.21-255.21Z"/>
  <path class="cls-1" d="M510.97,255.46c0,140.95-114.26,255.21-255.21,255.21S.55,396.41.55,255.46,114.81.25,255.76.25s255.21,114.26,255.21,255.21ZM491.11,255.47c0-129.98-105.37-235.35-235.35-235.35S20.41,125.49,20.41,255.47s105.37,235.35,235.35,235.35,235.35-105.37,235.35-235.35Z"/>
  <path class="cls-2" d="M491.11,255.47c0,129.98-105.37,235.35-235.35,235.35S20.41,385.45,20.41,255.47,125.78,20.12,255.76,20.12s235.35,105.37,235.35,235.35ZM462.01,255.45c0-115-93.22-208.22-208.22-208.22S45.57,140.45,45.57,255.45s93.22,208.22,208.22,208.22,208.22-93.22,208.22-208.22Z"/>
  <path class="cls-1" d="M462.01,255.45c0,115-93.22,208.22-208.22,208.22S45.57,370.45,45.57,255.45,138.79,47.23,253.79,47.23s208.22,93.22,208.22,208.22ZM450.35,255.45c0-108.53-87.98-196.52-196.52-196.52S57.32,146.91,57.32,255.45s87.98,196.52,196.52,196.52,196.52-87.98,196.52-196.52Z"/>
  <path class="cls-2" d="M450.35,255.45c0,108.53-87.98,196.52-196.52,196.52S57.32,363.98,57.32,255.45,145.3,58.93,253.84,58.93s196.52,87.98,196.52,196.52ZM145.12,383.28h231.34c-1.8-23.24-19.69-41.87-39.79-52.84,12.5-13.19,11.7-32.57,7.06-50.24l33.99,10.38-1.17,4.17c1.7.84,3.49.99,5.44.75l1.81-5.8,7.36,2.26-1.27,4.19c1.81.95,3.76,1.24,6.01.97l5.79-19.14c-2.03-.96-3.93-1.15-5.98-1.15l-1.14,3.57-7.19-2.11,1.96-6.89c-1.77-.83-3.69-.88-5.56-1.04-.24,1.29-.39,2.15-.98,3.43l-40.39-12.22c-1.59-.48-3.18.15-4.57.87-1.25-7.32-1.51-14.37-1.01-21.68l1.26-18.16c.71-10.24-.08-20.09-2.05-30.13-3.55-18.19-12.67-34.22-26.49-46.46l-10.68-8.35c-16.95-11.28-39.55-11.76-57.34-1.88-44.87,3.09-56.85,40.01-57.67,79.92-.26,12.71.83,24.94,1.85,37.56.37,4.57-.03,9.03-2.7,12.73-.99-1.28-1.1-2.47-2.28-2.83s-2.95-.63-4.34-.2l-39.31,12.14-1.05-3.1c-1.95-.24-3.76-.09-5.46.8l1.95,6.83-17.46,5.49-1.08-3.51c-2.15-.27-4.06.16-5.97,1.12l5.94,19.29c2.24.01,4.08-.23,5.91-1.1l-1.13-4.37,17.39-5.52,1.86,5.88c1.89.12,3.71-.07,5.4-.83l-1.2-4.17,34.62-10.75-3.53,13.04c-2.6,13.39,1.73,25.62,11.37,35.71-6.01,2.74-11.44,5.47-16.7,9.23-14.14,10.1-23.42,26.38-22.85,44.13Z"/>
  <path class="cls-3" d="M145.12,383.28c-.57-17.76,8.7-34.03,22.85-44.13,5.26-3.76,10.69-6.49,16.7-9.23-9.65-10.09-13.97-22.33-11.37-35.71l3.53-13.04-34.62,10.75,1.2,4.17c-1.68.76-3.5.95-5.4.83l-1.86-5.88-17.39,5.52,1.13,4.37c-1.83.87-3.68,1.11-5.91,1.1l-5.94-19.29c1.92-.96,3.83-1.39,5.97-1.12l1.08,3.51,17.46-5.49-1.95-6.83c1.7-.89,3.51-1.04,5.46-.8l1.05,3.1,39.31-12.14c1.39-.43,3.12-.18,4.34.2s1.29,1.55,2.28,2.83c2.66-3.71,3.07-8.16,2.7-12.73-1.02-12.62-2.11-24.85-1.85-37.56.82-39.9,12.8-76.82,57.67-79.92,17.79-9.89,40.39-9.4,57.34,1.88l10.68,8.35c13.83,12.24,22.94,28.27,26.49,46.46,1.96,10.04,2.76,19.89,2.05,30.13l-1.26,18.16c-.51,7.31-.24,14.36,1.01,21.68,1.39-.72,2.98-1.35,4.57-.87l40.39,12.22c.59-1.27.74-2.14.98-3.43,1.87.16,3.79.21,5.56,1.04l-1.96,6.89,7.19,2.11,1.14-3.57c2.06,0,3.95.2,5.98,1.15l-5.79,19.14c-2.26.27-4.2-.02-6.01-.97l1.27-4.19-7.36-2.26-1.81,5.8c-1.95.24-3.74.09-5.44-.75l1.17-4.17-33.99-10.38c4.64,17.67,5.44,37.05-7.06,50.24,20.1,10.98,37.98,29.6,39.79,52.84h-231.34ZM244.25,151.22c13.41,23.02,33.06,36.8,60.27,37.45,2.76,7.19,5.36,14.15,6.88,21.7,2.69-.26,4.86-.32,7.26.12,9.32,1.7,8.04,16.28,4.3,24.72-1.37,3.1-3.82,5.42-6.93,6.42-2.63.67-5.12.59-8.01.51-1.82,5.32-4.03,10.13-6.78,15.09l28.96,8.9,1.12-2.29,3.6-.11c-1.42-8.78-1.69-17.21-.94-26,.86-10.07,1.55-19.69.94-29.84-1.72-28.77-13.02-50.84-36.35-67.76-16.93-12.28-36.53-13.35-54.91-3.28-28.54,1.81-45.33,18.17-52.53,45.29-5.96,22.44-4.46,47.15-2.37,70.24.4,4.46.15,8.51-1.7,12.51,1.53.12,2.16.82,2.4,2.42l29.31-9.1c-3.02-5.44-5.48-10.52-7.42-16.15l-3.56.15c-4.87.2-9.08-2.09-11.21-6.58-3.38-7.11-5.09-20.38,1.43-24.17,2.88-1.67,6.19-1.44,9.6-.92-1.33-11.96,3.17-23.48,12.17-31.4,9.74-8.56,19.98-14.62,22.23-28.02.65.65,1.31,1.47,1.47,1.24l.79-1.13ZM305.37,143.5l-.22.22.22.22.22-.22-.22-.22ZM306.47,145.05c.23.35.58,0,.23-.23l-.23.23ZM307.1,145.23l-.22.22.21.21.22-.21c-.06-.09-.16-.16-.21-.22ZM307.54,145.66l-.07.43c.27-.01.35-.32.07-.43ZM308.2,146.35c.23.35.58,0,.23-.23l-.23.23ZM308.83,146.53l-.22.22.21.21.22-.22-.21-.21ZM309.26,146.96l-.22.22.22.22.22-.22-.22-.22ZM309.69,147.39l-.22.22.22.22.22-.22-.22-.22ZM310.12,147.82l-.22.22.22.22.22-.22-.22-.22ZM310.56,148.25l-.22.22.22.22.22-.22-.22-.22ZM209.14,149.12c0-.21-.17-.37-.37-.37s-.37.17-.37.37.17.37.37.37.37-.17.37-.37ZM310.99,148.69l-.22.22.22.22.22-.22-.22-.22ZM311.42,149.12l-.22.22.22.22.22-.22-.22-.22ZM311.85,149.55l-.22.22.22.22.22-.22-.22-.22ZM202.9,155.06l4.55-5.01c-2,1.38-3.42,3.17-4.55,5.01ZM312.28,149.98l-.22.22.22.22.22-.22-.22-.22ZM312.72,150.41l-.22.22.22.22.22-.22-.22-.22ZM313.15,150.85l-.22.22.22.22.22-.22-.22-.22ZM313.58,151.28l-.22.22.22.22.22-.22-.22-.22ZM314.01,151.71l-.22.22.22.22.22-.22-.22-.22ZM314.44,152.14l-.22.22.22.22.22-.22-.22-.21ZM314.88,152.58l-.21.21.22.22.22-.22c-.09-.05-.15-.14-.22-.21ZM315.31,153.01l-.21.21.22.65.22-.22-.22-.65ZM244.23,154.14c.24.34.58,0,.23-.24l-.23.24ZM315.74,153.87l-.22.22c.09.05.15.14.22.21l.22-.22c-.07-.07-.13-.17-.22-.21ZM240.78,159.45c.2.11.57.18.78-.19.33-1.61,1.48-2.99,1.34-4.74.05.04-.18-.25-.3-.26l-1.82,5.18ZM244.85,154.31l-.2.59c-.35.91,1.05,1.05.84.09-.2-.36-.54-.57-.64-.68ZM316.17,154.31l-.22.22.22.21.22-.22-.22-.21ZM316.57,155.15l.23-.23c-.23-.35-.58,0-.23.23ZM200.63,157.61c1.23-.52,1.72-1.53,1.97-2.41-1.07.77-1.39,1.66-1.97,2.41ZM316.85,155.43c.24.34.58,0,.23-.24l-.23.24ZM317.48,155.61l-.17.35c.18.47.38.72.6.94l.15-.35c-.16-.43-.41-.76-.58-.94ZM246.42,156.47c0-.27-.22-.48-.48-.48s-.48.22-.48.48.22.48.48.48.48-.22.48-.48ZM258.25,283.21c17.91-.21,29.84-10.13,39.02-24.9-2.39-.92-4.63-1.8-7.07-3.46,2.96-.5,5.3.68,8.19,1.58,2.91-5.2,5.36-10.5,7.07-16.08l5.35.53c9.17.92,13.02-13.08,11.43-23.19-.76-4.86-5.59-7.47-9.99-5.8l-3.63.26c-1.31-7.8-3.99-15.07-6.85-22.45-25.26-.92-44.22-12.95-57.85-33.6-1.81,4.78-3.96,8.6-7.45,11.65l-12.89,11.27c-9.69,8.47-14.78,20.65-12.68,33.1-2.67.27-4.4-.4-6.59-.63-3.63-.39-6.67,2.71-7.26,6.38-1.57,9.75,2.33,24.26,11.71,22.97,1.88-.26,3.54-.72,5.24-.21,2.04,5.9,4.46,11.4,7.67,16.77,2.61-.91,4.75-2.05,7.78-1.42l-4.65,2.53c-.52.29-1.5.07-1.99.79,7.94,12.75,19.61,24.07,35.46,23.89ZM318.33,156.9l-.22.21.22.22.22-.22-.22-.21ZM247.28,157.76c0-.27-.22-.48-.48-.48s-.48.22-.48.48.22.48.48.48.48-.22.48-.48ZM318.77,157.33l-.22.22.21.21.22-.22-.21-.21ZM319.16,158.17l.23-.23c-.23-.35-.58,0-.23.23ZM200.49,158.63c0-.21-.17-.37-.37-.37s-.37.17-.37.37.17.37.37.37.37-.17.37-.37ZM247.26,158.88c.23.35.58,0,.23-.23l-.23.23ZM319.44,158.88c.23.35.58,0,.23-.23l-.23.23ZM247.88,159.06l-.22.22.21.21.22-.22-.21-.21ZM320.07,159.06l-.22.22.21.21.22-.22-.21-.21ZM199.63,159.92c0-.21-.17-.37-.37-.37s-.37.17-.37.37.17.37.37.37.37-.17.37-.37ZM248.27,159.9l.23-.23c-.23-.35-.58,0-.23.23ZM320.46,159.9l.23-.23c-.23-.35-.58,0-.23.23ZM240.53,159.92l-.22.22.22.22.22-.22-.22-.22ZM248.55,160.61c.23.35.58,0,.23-.23l-.23.23ZM321.63,160.79c0-.27-.22-.48-.48-.48s-.48.22-.48.48.22.48.48.48.48-.22.48-.48ZM198.87,161.22c0-.27-.22-.48-.48-.48s-.48.22-.48.48.22.48.48.48.48-.22.48-.48ZM237.78,164.23c1.25-.87,1.91-2.14,2.41-3.42l-2.41,3.42ZM249.18,160.79l-.22.22.21.21.22-.22-.21-.21ZM249.57,161.63l.23-.23c-.23-.35-.58,0-.23.23ZM321.6,161.91c.24.35.58,0,.23-.23l-.23.23ZM197.93,162.61c.21-.57-.59-.77-.71-.43l-.93,2.51c.78-.45,1.17-1.05,1.65-2.08ZM249.85,162.34c.23.35.58,0,.23-.23l-.23.23ZM322.23,162.09l-.22.22c.05.05.12.17.22.21l.21-.21-.21-.22ZM250.48,162.52l-.22.22.21.21.22-.22-.21-.21ZM322.65,162.53l-.21.41c-.12.48.03.73.21.89s.72.03.66-.45c-.05-.42-.5-.67-.66-.84ZM250.87,163.36l.23-.23c-.23-.35-.58,0-.23.23ZM251.29,164.06c.48,1.07.84.7.62-.07l-.62.07ZM324.22,164.68c0-.27-.22-.48-.48-.48s-.48.22-.48.48.22.48.48.48.48-.22.48-.48ZM237.65,165.12c0-.22-.17-.39-.39-.39s-.39.17-.39.39.17.39.39.39.39-.17.39-.39ZM252.16,165.09l.23-.24c-.24-.34-.58,0-.23.24ZM196.01,165.11l-.22.22.22.22.22-.22-.22-.22ZM236.66,166.15c.3-.27.27-.63-.19-.71l-3.92,4.38,4.1-3.67ZM324.19,165.8c.24.35.58,0,.23-.23l-.23.23ZM195.58,165.98l-.22.22.22.22.22-.22-.22-.22ZM253.31,166.23c.24.35.58,0,.23-.23l-.23.23ZM324.84,165.99l-.23.2c-.1.55.22,1.24.62,1.5l.23-.21c.06-.54-.3-1.17-.62-1.5ZM253.93,166.41l-.22.22c.06.05.13.16.22.21l.21-.21-.22-.21ZM195.15,166.84l-.22.22.22.22.22-.22-.22-.22ZM254.37,166.84l-.22.22c.17.39.35.78.65,1.08l.22-.22c-.17-.39-.35-.78-.65-1.08ZM194.72,167.7l-.22.22.22.22.22-.22-.22-.22ZM325.64,168.11l.23-.23c-.24-.35-.58,0-.23.23ZM255.23,168.14l-.21.21.22.22.22-.22c-.07-.07-.13-.16-.22-.21ZM187.9,254.87l-.42-5.49-.44-4.73c-.21-2.24-.3-4.24-.39-6.52-.08-1.83-.67-3.68-.34-5.59.29-1.68-.37-3.22-.36-4.79l.04-15.97.4-6.92c.1-1.66.42-3.39.55-5.06.83-10.97,3.87-20.89,7.51-31.39-5.93,10.92-7.59,23.51-8.87,35.74l-.35,6.99-.15,16.6c-.01,1.57.68,3.11.37,4.8-.35,1.9.26,3.76.34,5.59.1,2.28.15,4.27.39,6.52l.46,4.29c.22,2.11.1,4.01.46,6.1.6,3.5-1.42,6.62-1.49,10.04,1.83-2.97,2.56-6.7,2.29-10.21ZM255.66,168.57l-.22.22.22.22.22-.22-.22-.21ZM326.12,168.57l-.22.22.22.22.22-.22-.22-.22ZM256.09,169l-.22.22.22.22.22-.22-.22-.22ZM256.53,169.43l-.22.22.22.22.22-.22-.22-.22ZM326.35,169.69c.24.35.58,0,.23-.23l-.23.23ZM256.96,169.87l-.22.22.22.22.22-.22-.22-.22ZM327.02,169.91l-.27.18c.17,1.19.62,2.42,1.66,3.3.28-1.43-.75-2.8-1.4-3.48ZM257.39,170.3l-.22.22.21.22.22-.22-.21-.22ZM230.38,171.82c.11.23.3.22.43,0l.85-.89-.21-.21-1.08,1.08ZM257.82,170.73l-.22.22c.07.07.16.13.21.22l.22-.22c-.05-.09-.14-.15-.21-.22ZM258.26,171.16l-.22.22.65.22.21-.21-.65-.22ZM259.12,171.59l-.22.22.22.22.21-.21c-.07-.07-.17-.13-.21-.22ZM259.55,172.03l-.22.22.22.22.22-.22-.21-.22ZM229.3,172.46l-.22.22.22.22.22-.22-.22-.22ZM259.98,172.46l-.22.22.22.22.22-.22-.22-.22ZM260.42,172.89l-.22.22.21.21.22-.22-.21-.21ZM260.81,173.73l.23-.23c-.23-.35-.58,0-.23.23ZM228,173.76l-.22.22.22.22.22-.22-.22-.22ZM336.82,264.83c.28-3.1-.83-5.5-.84-8.32l-.05-18.76.42-4.4.32-4.75.43-3.88-.16-17.51c-1.05-11.53-2.64-23.1-8.4-33.59,3.98,10.95,7.45,21.75,7.54,33.57l.13,17.54c0,1.25-.29,2.57-.39,3.91l-.34,4.71-.43,4.41.14,18.75c.02,2.86.23,5.65,1.63,8.32ZM262.15,174.19l-.22.22.22.22.22-.22-.22-.22ZM226.7,174.62l-.22.22.22.22.22-.22-.22-.22ZM225.41,175.92l-.22.22.22.22.22-.22-.22-.22ZM222.45,178.29h-.28s.28.02.28.02h.57s-.28-.02-.28-.02h-.29ZM218.03,182.83c1.2-1.29,2.43-2.09,3.2-3.45l-5.57,5.97c1.21-.35,1.82-1.32,2.38-2.52ZM215.73,186.29c0-.27-.22-.48-.48-.48s-.48.22-.48.48.22.48.48.48.48-.22.48-.48ZM214.6,187.15l-.22.22.22.22.22-.22-.22-.22ZM208.99,211.15c1.52-1.89.24-3.65.32-5.27.31-6.67,2.05-12.49,5.22-18.22-.56.16-1.06.84-1.36,1.34-3.94,6.48-5.37,14.67-4.18,22.15ZM304.5,191.14l-.63-1.19c-.2-.39-.74-.27-.81.02,2.99,7.02,4.65,14.17,7.03,21.25-.32-7.23-3.67-13.29-5.6-20.08ZM198.33,213.09c0-.21-.17-.37-.37-.37s-.37.17-.37.37.17.37.37.37.37-.17.37-.37ZM197.31,213.52l-.22.22.22.22.22-.22-.22-.22ZM322.23,213.52l-.22.22.22.22.22-.22-.22-.22ZM198.46,235.73c-1.84-4.78-3.08-9.9-2.6-15.29-.44-2.23.71-3.96,1.22-6.29-2.16,1.58-2.09,4.29-2.17,6.72-.17,5.38.68,10.66,3.14,15.17l.41-.31ZM321.64,234.79c3.3-4.83,4.22-15.74,1.23-20.75-.85,1.44.45,2.45.64,3.6.98,5.92-.42,11.29-1.87,17.14ZM321.36,235.13l-.22.22.22.22.22-.22-.22-.22ZM198.61,236l-.21.21c.03.09.11.17.21.22l.22-.22c-.09-.05-.17-.13-.22-.22ZM320.26,236.27c-.08.66.5.69.67.59.23-.14.32-.4.22-.65-.08-.2-.57-.51-.89.06ZM199.04,236.43c-.09.05-.17.12-.21.21-.12.24.04.54.21.65l.23-.22-.22-.64ZM199.43,237.7l.24-.24c-.24-.34-.58,0-.24.24ZM320.06,237.29l-.22.22.22.22.22-.22-.22-.22ZM199.71,237.98c.23.35.58,0,.23-.23l-.23.23ZM319.16,238.76c.84-.12.74-.64.69-.82s-.44-.36-.64-.21c-.19.14-.27.45-.36.78-.45.35.05.65.31.25ZM200.34,238.16l-.22.22.21.21.22-.22-.21-.21ZM200.73,239l.23-.23c-.23-.35-.58,0-.23.23ZM219.12,255.49c-.09-.88-.47-1.51-.78-2.24-2.39-3.71-3.3-7.81-5.55-11.9.75,5.38,3.83,9.93,5.97,14.6l.36-.45ZM306.68,241.38l-6.7,15.33c2.93-4.51,5.76-9.56,6.7-15.33ZM219.3,256.28l.25-.24c-.24-.34-.57,0-.25.24ZM219.6,257c.23.34.58,0,.23-.23l-.23.23ZM220.18,257.58l.23-.23c-.23-.34-.58,0-.23.23ZM299.15,258.9c0-.27-.22-.48-.48-.48s-.48.22-.48.48.22.48.48.48.48-.22.48-.48ZM221.39,259.65c-.42.58.04,1.14.54,1,.25-.07.35-.57.08-.87-.12-.13-.31-.56-.62-.13ZM340.11,279.01l-3.82-1.14c-1.9-.57-2.44-2.43-1.67-4.75-1.73-.76-3.67-.78-5.15-1.87-.7-.52-.13-2.04.36-3.1l-29.73-9.1c-2.85,4.64-5.79,8.49-9.51,12.24-.7,7.94-.93,15.78-.54,23.81.54,5.39.82,12.56,4.99,15l11.19,6.56,27.82,12.77c12.6-13.33,11.05-34.02,6.06-50.43ZM298.29,260.2c0-.27-.22-.48-.48-.48s-.48.22-.48.48.22.48.48.48.48-.22.48-.48ZM187.12,328.76l23.84-10.12c2.93-1.24,5.83-2.33,8.38-4.21,5.49-4.06,8.55-10.12,9.65-16.85,1.39-8.4,1.34-16.68.6-25.15-3.8-3.83-6.77-7.78-9.68-12.44l-29.98,9.32c.36.73,1.44,2.73.4,3.14l-5,1.98c.29,1.14.53,2.27.02,3.18-.95,1.74-3.21,1.58-5.03,2.58l-3.73,13.18c-3.39,12,1.52,26.38,10.52,35.4ZM223.08,261.5c0-.27-.22-.48-.48-.48s-.48.22-.48.48.22.48.48.48.48-.22.48-.48ZM297.42,261.5c0-.27-.22-.48-.48-.48s-.48.22-.48.48.22.48.48.48.48-.22.48-.48ZM223.94,262.79c0-.27-.22-.48-.48-.48s-.48.22-.48.48.22.48.48.48.48-.22.48-.48ZM296.56,262.79c0-.27-.22-.48-.48-.48s-.48.22-.48.48.22.48.48.48.48-.22.48-.48ZM338.73,265.58c.94-1.01.99-1.85.93-2.82-.96.63-1.6,1.74-.93,2.82ZM354.36,282.2h3.05s3.05-9.27,3.05-9.27l.74.22-2.57,9.79c-.05,1.03,2.84,1.19,3.13.26l2.63-8.38c.09-.28.93-.31,1.11.06l-2.68,9.29.48.3,3.28-9.86.75.26-2.66,9.78c.8.51,1.46.73,2.42.75l3-9.5.79.22-2.55,9.56c-.24.92,1.46.82,2,.98l10.32,2.98,4.17-13.91c-.13-.8-1.55-.09-1.99-.18l-41.75-12.74-3.71,11.65c-.7,2.2,2.33,3.01,5.63,3.5l3.17-9.39c.16.05.46.18.72.47l-2.62,9.32c-.28.98,2.7,1.55,3,.61l2.76-8.48c.15-.46,1.14-.27,1.05.03l-2.58,9.4.58.14,3.19-9.85.84.3c-1.26,3.1-1.35,6.75-3.58,9.91l3.19.6,3.03-9.52.84.27-2.61,9.79c.13.06.45.1.68-.2l2.83-9.57c.07-.14.64-.31,1.12.08l-2.98,9.77c-.69-.09-1.08,0-1.27.56ZM223.92,263.92c.23.35.58,0,.23-.23l-.23.23ZM290.53,269.68c2.03-1.76,3.74-3.77,5.01-6.01-2.24,1.79-3.45,3.98-5.01,6.01ZM161.47,273.15c-.07-.26.94-.38,1.07,0l3.08,9.69c.14-.04.39-.21.54-.39l-2.71-9.3.74-.26,2.97,9.1c.41.49,2.18.02,2.47-.65l-2.74-9.49c-.12-.41.98-.68,1.19.01l2.77,9.17.68-.04-2.66-9.29c.49-.27.98-.05,1.03.11l2.65,8.65c.1.34,1.52-.02,1.42-.36l-2.92-9.96c-.02-.24,1.05-.39,1.12-.14l3.01,9.71.67-.03-2.62-8.69c-.13-.44-.27-.94.36-1.05.31-.06.48-.01.66.56l2.71,8.87,4.25-1.3c.91-.28,1.66-1.22,1.31-2.31l-3.77-11.71-41.43,12.78c-.67.21-1.39-.36-2.35.28l4.41,13.93,10.63-3.29-2.97-10.25.79-.22,3.49,10.06c.15-.04.4-.21.48-.54l-2.68-9.27c.17-.05.53-.08.78-.06l2.88,8.99c.48.5,2.32-.06,2.46-.73l-2.67-9.59.84-.28,3.2,9.83.58-.13-2.51-9.42c.14-.06.47-.09.77,0l2.63,8.35c.17.54.4.55.76.54.21,0,.87-.19.75-.61l-2.76-9.96.83-.19,3.28,10.01.55-.48-2.73-9.06c.23-.19.55-.37.73-.42l3.21,9.46c.79-.12,1.27-.29,1.66-.57l-2.89-10.02ZM181.33,266.16c.46-.45-.39-1.89-.95-2.01-.41.59.05,2.1.95,2.01ZM224.54,264.09l-.22.22.21.21.22-.22-.21-.21ZM224.93,264.93l.23-.23c-.23-.35-.58,0-.23.23ZM331.51,267.53c0,.2.27.46.45.58.19-.08.76-.07.88.37-.13.41-.75,1.52-.38,1.97.55.67,1.65.81,2.71,1.04l1.53-5.05c-.78-.51-1.46-.61-1.97-.77-.9-.28-1.44.79-1.73,1.29-.9-.46-.48-1.34-.28-1.99-1.34.08-1.21,1.54-1.2,2.57ZM225.21,265.64c.24.35.58,0,.23-.23l-.23.23ZM225.84,265.82l-.22.22.22.21.22-.21-.21-.21ZM187.9,267.94c.24.35.46,1,.5,1.34.1.89-.05,1.92,1.05,2.86.6-1.18-.33-2.02-.53-2.87l-.38-1.68c-.1-.42-.32-1.27-.8-1.29-.39.53-.16,1.19.16,1.64ZM226.27,266.25l-.15.35c.16.43.41.76.58.94l.17-.35c-.18-.47-.38-.72-.6-.94ZM338.82,266.79c.22-.6-.6-.79-.72-.44l-1.79,5.48c.16.06.46.08.65.05l1.85-5.09ZM186.19,266.53l-3.14.97,1.6,5.2,3.14-.97-1.6-5.2ZM182.98,273.18c.25.08.55.05.75-.24-.66-1.78-.81-3.79-1.9-5.42-.02,0-.27.19-.34.27l1.5,5.39ZM227.09,267.96l.23-.24c-.24-.34-.58,0-.23.24ZM227.42,268.51c.79.93,1.4.32.47-.47l-.47.47ZM330.79,270.61c.53-.77.96-1.55.59-2.68-.52.78-.96,1.54-.59,2.68ZM228.43,268.86l-.21.21.21.21.22-.22c-.09-.05-.17-.14-.22-.2ZM228.86,269.28l-.21.22.22.65.22-.22-.22-.65ZM229.29,270.14l-.22.22c.09.05.15.14.22.21l.22-.22c-.07-.07-.13-.17-.22-.21ZM229.73,270.57l-.22.22.22.21.22-.22-.22-.21ZM230.16,271.01l-.22.22.22.22.22-.22-.22-.22ZM230.59,271.44l-.22.22.22.22.22-.22-.22-.22ZM231.03,271.87l-.22.22.21.21.22-.22-.21-.21ZM385.33,271.87c-.56-.32-1.24,1.03-.98,2.64.95-.83,1.42-2.39.98-2.64ZM388.06,272.64c.13-.35.08-.65-.14-.77-.62-.33-2.59,4.49-2.06,6.85l2.21-6.08ZM231.42,272.71l.23-.23c-.23-.35-.58,0-.23.23ZM287.37,273.17c0-.21-.17-.37-.37-.37s-.37.17-.37.37.17.37.37.37.37-.17.37-.37ZM291.36,307.75c-2.87-8.36-2.71-17.41-2.37-26.1l.31-7.86c.01-.27.35-.66.31-.84-.05-.19-.48-.34-.65-.23-.15.1-.47.42-.49.76l-.35,8.19c-.31,7.1-.23,23.5,2.92,26.48l.32-.41ZM336.27,275.98l.38-3.42c-1.38.65-1.55,2.75-.63,3.62l.25-.21ZM134.27,279.76c.13-2.41-.86-4.56-1.83-6.77-.38,2.45.61,4.63,1.83,6.77ZM135.5,275.79c.47-.87.43-2.08-.48-2.64-.36.98-.39,1.89.48,2.64ZM183.27,277.86c1.21-.27,1.49-.88,1.31-1.9-.13-.74-.04-2.01-1.46-1.97.63,1.47.9,2.62.15,3.87ZM227.06,307.77c4.18-5.27,4.02-11.83,4.92-17.93l.08-13.19-.6-2.88c-1.37.62-.26,1.53-.27,2.01l-.13,14.92c-.05,6.1-1.74,11.65-4,17.07ZM371.21,372.18c-4.31-15.47-22.01-33.6-36.24-40.15l-29.06-13.36-13.24-7.5c-2.11-1.2-3.4-3.06-4.04-5.47-.94-3.57-1.66-7.18-1.63-10.94l.17-20.33c-8.06,6.95-17.28,9.63-27.42,9.98s-19.02-2.25-26.79-8.96c.42,14.4.94,31.01-10.74,39.68-2.98,2.21-6.36,3.47-9.81,4.89-11.21,4.6-22.1,9.1-32.91,14.61-15.15,7.72-27.43,21.18-30.52,38.69,14.92-10.85,30.63-16.97,49.03-16.18,17.2.74,33.85,4.54,49.72,11.01l10.85,5.23c11.81-5.82,23.82-10.44,36.53-13.77,10.3-2.7,20.23-3.32,30.79-2.06,7.8.93,15.27,1.52,22.71,4.06,7.94,2.71,15.04,6.72,21.97,11.05l.61-.48ZM336.45,276.6l.23-.23c-.23-.35-.58,0-.23.23ZM397.21,278.99c.27-.88-1.12-.93-.83.04-.43.79-.75,1.47-.01,2.19.57-.74.58-1.36.85-2.24ZM394.47,295.81c.18.13.37.26.75.1l5.11-17.49c-.18-.06-.39-.02-.68.11l-5.18,17.28ZM382.69,288.14c1.75-2.59,2.01-5.34,2.91-8.09.16-.5-.16-.95-.78-.67l-2.14,8.76ZM339.84,324.11c4.27-5.14,4.8-11.39,5.86-17.44.38-9.21-.33-18.5-3.71-27.24.95,6.89,2.72,12.91,2.97,19.68.33,8.98-1.38,17.23-5.13,25.01ZM386.72,279.77l-2.51,8.32,7.48,2.26,2.51-8.32-7.48-2.26ZM176.13,290.88l2.85-10.3c-.22-.06-.48-.09-.75-.08l-3.2,11.28c-2.82,9.92-1.57,21.24,4.83,29.61-5.02-9.97-6.7-19.76-3.72-30.51ZM137.2,289.58c.08-3.4-1.11-6.11-2.58-8.94.19,3.3,1.44,6.24,2.58,8.94ZM133.18,281.14l-17.68,5.62,2.63,8.28,17.68-5.62-2.63-8.28ZM393.04,290.98c1.55-3.1,2.78-6.11,2.69-9.35-1.37,3.2-2.39,6.05-2.69,9.35ZM113.31,282.66l-.81.24.82,2.77.81-.24-.82-2.77ZM114.71,300.41c.32.06.56-.02.81-.28l-5.5-17.03-.37.71,5.06,16.59ZM116.44,295.22c.14.04.51.1.77-.25l-3.04-8.52c-.05.02-.3.06-.55.35l2.81,8.42ZM381.02,294.38c1.01-1.93,1.49-3.45,1.4-5.36-1.18,1.58-1.89,3.58-1.4,5.36ZM138.89,295.65c.25.08.55.05.75-.24-.63-1.66-.77-3.54-1.75-5.05-.1.03-.33.15-.5.34l1.51,4.95ZM378.92,290.27l-.94,3.73.87.22.94-3.73-.87-.22ZM141.12,291.69l-.84.24,1.06,3.75.84-.24-1.06-3.75ZM391.48,295.75c1.28-.99,1.39-2.56,1.28-4.06-.84,1.1-1.34,2.35-1.28,4.06ZM117.44,296.33l-.78.26,1.25,3.76.78-.26-1.25-3.76ZM226.86,308.61c0-.21-.17-.37-.37-.37s-.37.17-.37.37.17.37.37.37.37-.17.37-.37ZM291.5,308.59l.23-.24c-.24-.34-.58,0-.23.24ZM225.99,309.91c0-.21-.17-.37-.37-.37s-.37.17-.37.37.17.37.37.37.37-.17.37-.37ZM225.13,311.2c0-.21-.17-.37-.37-.37s-.37.17-.37.37.17.37.37.37.37-.17.37-.37ZM224.1,312.42c.46-.21.26-.71,0-.78s-.46,0-.69.39l-.8,1.34,1.49-.94ZM179.83,321.83c.24.35.58,0,.23-.23l-.23.23ZM180.45,322.01l-.21.21.22.65.22-.22-.22-.64ZM180.88,322.88l-.22.22c.09.05.16.15.22.21l.22-.22c-.05-.05-.12-.16-.22-.21ZM181.28,323.71l.23-.23c-.24-.35-.58,0-.23.23ZM181.75,324.17l-.22.22.22.22.22-.22-.22-.22ZM181.99,324.86c.24.35.58,0,.23-.23l-.23.23ZM339.67,325.03c0-.21-.17-.37-.37-.37s-.37.17-.37.37.17.37.37.37.37-.17.37-.37ZM182.61,325.04l-.21.21.22.65.22-.22-.22-.64ZM183.05,325.9l-.22.22c.09.05.15.14.22.21l.22-.22c-.07-.07-.13-.16-.22-.21ZM338.81,326.33c0-.21-.17-.37-.37-.37s-.37.17-.37.37.17.37.37.37.37-.17.37-.37ZM183.48,326.33l-.21.22.65.65.21-.21-.65-.65ZM184.34,327.2l-.22.22c.07.07.13.17.22.21l.21-.21-.22-.22ZM337.94,327.63c0-.21-.17-.37-.37-.37s-.37.17-.37.37.17.37.37.37.37-.17.37-.37ZM184.78,327.63l-.22.22c.13.37.39.81.64,1.07l.23-.21c-.13-.38-.35-.78-.65-1.07ZM337.15,328.72c.26-.78-.99-1.06-.94-.02-.51.41-1.01.89-.61,1.56.29-.56.38-1.09,1.56-1.54ZM185.6,329.33l.23-.24c-.24-.34-.58,0-.23.24ZM351.18,341.46l-.22.22.22.22.22-.22-.22-.22ZM352.29,342.58c.23.35.58,0,.23-.23l-.23.23ZM352.92,342.76l-.22.22.21.21.22-.22-.21-.21ZM353.35,343.19l-.22.22.21.21.22-.22-.21-.21ZM353.74,344.03l.23-.23c-.23-.35-.58,0-.23.23ZM158.78,349.59l4.57-5.05c-1.88,1.45-3.53,2.99-4.57,5.05ZM355.31,345.61c.23.35.58,0,.23-.23l-.23.23ZM355.94,345.78l-.22.22.21.21.22-.22-.21-.21ZM356.37,346.21l-.22.22.22.22.22-.22-.22-.22ZM356.8,346.65l-.22.22.22.22.22-.22-.22-.22ZM357.24,347.08l-.22.22.22.22.22-.22-.22-.22ZM357.67,347.51l-.22.22.22.22.22-.22-.22-.22ZM358.1,347.94l-.22.22.22.22.22-.22-.22-.22ZM358.53,348.37l-.22.22.22.22.22-.22-.22-.22ZM358.96,348.81l-.22.22.22.22.22-.22-.22-.22ZM359.4,349.24l-.22.22.22.22.22-.22-.22-.22ZM359.83,349.67l-.22.22.22.21.22-.22-.22-.22ZM156.51,352.25c.9-.48,1.39-1.3,1.55-2.13-.81.72-1.11,1.36-1.55,2.13ZM360.26,350.1l-.15.35.58.95.15-.35-.58-.95ZM361.12,351.4l-.22.22.22.21.22-.22-.22-.21ZM361.56,351.83l-.12.32.55.54.12-.32-.55-.55ZM153.1,358.44l3.14-5.76c-5.01,6.41-8.68,14-9.16,22.38,1.78-5.68,3.1-11.25,6.02-16.62ZM362.42,352.7l-.15.35c.19.44.38.72.59.94l.14-.34c-.2-.45-.37-.73-.58-.95ZM363.29,353.99l-.22.44c-.01.48.44.55.65.43.23-.14.33-.4.22-.65s-.41-.34-.65-.22ZM363.96,355.56c.24.34.58,0,.23-.24l-.23.24ZM364.58,355.72l-.22.44c0,.47.44.55.65.42.24-.14.33-.4.22-.65s-.41-.34-.65-.22ZM365.45,357.02l-.22.22.22.22.22-.22-.22-.22ZM365.88,357.45l-.22.22.22.22.22-.22-.22-.22ZM336.1,360.17c-7.16-1.06-14.15-2.01-21.43-2.02-6.62,0-12.77,1.42-19.16,3.07-12.51,3.23-24.16,8.28-35.63,13.64-1.86.87-3.35-.49-4.78-1.21-18.7-9.31-39.08-14.91-60.13-15.36-16.11-.35-34.52,8.15-46.52,18.7-.24,1.84-.55,3.36-.12,5h224.88c-.06-2.26-.46-3.85-.93-5.65l-16.34-9.65c-6.33-3.2-12.77-5.47-19.84-6.52ZM366.12,358.57c.23.34.58,0,.23-.23l-.23.23ZM366.7,359.15l.23-.23c-.23-.34-.58,0-.23.23ZM366.98,359.87c.24.35.58,0,.23-.23l-.23.23ZM367.63,360.05l-.23.21c-.1.55.24,1.25.62,1.5l.24-.21c.06-.54-.29-1.16-.62-1.5ZM368.43,362.18l.23-.23c-.24-.35-.58,0-.23.23ZM368.91,362.64l-.22.22.22.22.22-.22-.22-.22ZM373.92,374.65c-1.14-4.24-2.28-7.84-4.53-11.48l2.55,7.5c.49,1.44.57,3.29,1.97,3.98ZM371.14,372.47l-.36.39c.33.45.84-.11.36-.39ZM373.5,375.83l1.03,6.61c1.18-.99.45-5.8-1.03-6.61ZM146.72,382.45l.71-6.04c-1.13.44-.9,1.21-.96,2.21-.07,1.23-1.15,2.49.24,3.83Z"/>
  <path class="cls-2" d="M258.25,283.21c-15.84.19-27.52-11.14-35.46-23.89.49-.72,1.46-.5,1.99-.79l4.65-2.53c-3.03-.63-5.17.51-7.78,1.42-3.21-5.37-5.63-10.87-7.67-16.77-1.7-.51-3.35-.05-5.24.21-9.38,1.28-13.28-13.22-11.71-22.97.59-3.67,3.62-6.77,7.26-6.38,2.19.24,3.92.91,6.59.63-2.1-12.45,2.99-24.63,12.68-33.1l12.89-11.27c3.49-3.05,5.64-6.87,7.45-11.65,13.63,20.66,32.6,32.69,57.85,33.6,2.86,7.38,5.54,14.65,6.85,22.45l3.63-.26c4.41-1.67,9.23.94,9.99,5.8,1.59,10.12-2.26,24.11-11.43,23.19l-5.35-.53c-1.71,5.58-4.15,10.88-7.07,16.08-2.89-.9-5.23-2.08-8.19-1.58,2.44,1.66,4.68,2.54,7.07,3.46-9.17,14.77-21.11,24.69-39.02,24.9ZM246.72,201.58c.69-.03,2.09-1.53,1.63-2.15-2.01-2.07-4.82-3.27-7.62-4.01-8.23-2.17-18.53-2.52-24.28,3.69,2.48.23,4.46-.57,6.77-1.01,7.23-1.38,14.55.3,21.02,3.6l2.49-.12ZM301.26,198.56c-7.94-8.17-28.86-3.61-31.2.85-.76,1.45,1.61,2.43,2.59,2.3,1.32-.18,1.91-.28,2.98-.8,7.48-3.61,15.64-4.27,23.49-1.73.59.19,1.48-.27,1.85-.28l.28-.34ZM301.63,198.94l-.48.17c.49.42.45-.34.48-.17ZM245.95,214.61c-1.1.18-1.93-.03-2.56-.16-6.8,4.3-12.57,4.33-18.61-.94-.71.12-1.63.43-2.27-.54-1.24,1.92-2.96,1.48-5.33,1.41,6.98,7.03,17.45,9.2,25.39,4.06,1.61-1.05,3.06-2.18,3.39-3.83ZM300.89,214.62c-.89-.41-2.02-.49-3.08-.22l-1.77-.82c-.81.02-1.76.32-2.39-.51-5.01,5.56-12.72,5.78-18.48,1.48-.94.22-1.89.26-2.72-.25-.19,1.04.25,1.6.82,2.16,7.44,7.42,19.74,5.76,27.63-1.84ZM319.07,231.12c2.19-3.58,2.84-7.71,2.18-11.6-.31-1.8-1.46-2.44-3.08-2.61-6.72-.71-10.99,6.01-11.04,11.58l-.08,8.54c4.91.41,9.37-1.58,12.02-5.92ZM212.54,236.3c.09-4.71-.23-8.64-1.25-12.84-.73-1.99-1.47-4.44-3.51-5.45s-4.72-.81-6.55-.01c-3.77,1.63-5.14,5.4-3.25,8.95,2.77,5.21,8.84,10.95,14.56,9.35ZM223.86,225.74c-2.61-1.94-6.31-2.41-6.47-.76-.08.81,4.66,2.81,6.47.76ZM301.04,228.66c.34-.08.6-.1.99-.06.41.03,1.27.02,1.47-.3-.03-1.34-.21-2.69-.7-3.77-.1-.22-.81-.03-.96.1-.11.1-.63.14-.85-.01-.34-.23-1.35-.3-1.42.1-.2,1.15.41,3.71.68,3.9.14.1.46.12.78.05ZM247.45,225.23c-.38-.87-6.39.14-5.82,1.93.47,1.46,6.63-.05,5.82-1.93ZM231.46,228.58c.09-.77.02-1.16-.08-1.35-1.98-.42-4.07-.69-5.9-.67-.17.58-.24,1.11-.11,1.46,1.97.64,4.16.7,6.09.56ZM239.51,228.84c.38-.02.33-.88.16-1.06-.22-.23-.56-.38-1.08-.37l-5.01.08c-.19.5-.18,1.4.18,1.67l5.75-.31ZM300.01,232.59l-.18,4.33,1.81.07.18-4.33-1.81-.07ZM303.34,236.67c.35-1.47.45-2.43.34-3.74-.03-.38-1.37-.42-1.39.08l-.15,3.68c.33.3,1.14.23,1.2-.02ZM295.6,242.53c.75-2.19,1.84-2.79,3.62-3.68-2.05-.57-3.16-1.92-3.79-3.79-.26.96-.24,1.52-1.04,1.98-.33-.99-.33-1.44-.83-2.05-.62,2.33-1.98,3.56-4.03,3.82,2.38.65,3.58,2.11,4.15,4.2.34-1.03.33-1.59,1.07-2.18.34.96.41,1.33.86,1.69ZM263.27,236.67c-1.03,1.23-2.23,3.49-3.92,3.48s-2.78-1.98-3.57-3.14l-3.09-.43c-.49,1.6.26,2.75.99,3.62.85,1.01,2.15,1.27,3.51.98,3.37-.73,6.3,1.17,8.01-1.21.63-.87,1.32-1.82.72-3.38-.98.94-1.88.31-2.64.07ZM301.25,244.89l1.17-3.92-3.4-.27-1.3,4,3.54.2ZM263.49,265.35c4.17-.02,7.61-2.69,9.62-6.04,1.52-2.53,3.68-4.1,6.27-5.38-2.8-.7-5.62-.88-7.56-2.71s-3.71-3.63-6.45-3.48l-6.01.31c-2.5.13-4.99-.79-7.43,0-1.95.63-3.1,2.37-4.6,3.6-2.73,2.27-6.15,1.76-9.69,2.23,2.57.55,5.01,1,6.71,3.16l3.25,4.11c1.95,2.47,4.6,4.27,7.85,4.25l8.04-.04ZM298.87,248.31l-3.1-.06c-.92.87-1.65,2-2.15,3.48,1.05.62,3.04.51,3.77-.26s1.62-1.88,1.48-3.16ZM233.78,264.01l-1.59-3.56-3.58.14c.28,1.47.92,2.53,1.61,3.8l3.56-.38ZM238.32,269.74l-.96-1-1.02-1.27c-.07-.09-4.32-.27-3.35.89l2.5,3c1.14-.96,4.21-.19,2.83-1.62ZM244.84,275.69c.06-.24.23-.77.05-.88l-.82-.52c-2.2-1.38-4.53-1.74-4.93-.82-.83,1.91,5.4,3.32,5.7,2.22ZM252.57,278.54c.14-.3.19-1.06.08-1.15-.15-.11-3.85-1-5.77-.68-.43.07-.56,1.19-.21,1.32,1.91.74,4.03,1.06,5.9.51ZM258.5,279.16c.25-.8,0-1.33-.16-1.49l-3.58-.07c-.13.67-.13,1.17.08,1.81l3.66-.25Z"/>
  <path class="cls-2" d="M244.25,151.22l-.79,1.13c-.16.23-.82-.59-1.47-1.24-2.24,13.41-12.49,19.46-22.23,28.02-9,7.92-13.5,19.43-12.17,31.4-3.41-.51-6.73-.75-9.6.92-6.52,3.79-4.81,17.06-1.43,24.17,2.13,4.49,6.34,6.78,11.21,6.58l3.56-.15c1.95,5.63,4.41,10.72,7.42,16.15l-29.31,9.1c-.24-1.6-.86-2.3-2.4-2.42,1.85-4,2.1-8.05,1.7-12.51-2.09-23.09-3.59-47.8,2.37-70.24,7.2-27.11,23.99-43.48,52.53-45.29,18.38-10.07,37.98-9,54.91,3.28,23.33,16.93,34.64,39,36.35,67.76.61,10.14-.08,19.76-.94,29.84-.75,8.79-.49,17.22.94,26l-3.6.11-1.12,2.29-28.96-8.9c2.75-4.96,4.97-9.77,6.78-15.09,2.89.08,5.38.16,8.01-.51,3.11-1.01,5.56-3.33,6.93-6.42,3.74-8.44,5.03-23.01-4.3-24.72-2.4-.44-4.57-.38-7.26-.12-1.52-7.54-4.12-14.5-6.88-21.7-27.21-.65-46.86-14.43-60.27-37.45Z"/>
  <path class="cls-2" d="M336.1,360.17c7.08,1.05,13.51,3.32,19.84,6.52l16.34,9.65c.48,1.81.87,3.4.93,5.64h-224.88c-.43-1.63-.12-3.15.12-4.99,12-10.54,30.41-19.04,46.52-18.7,21.05.45,41.43,6.05,60.13,15.36,1.44.71,2.92,2.07,4.78,1.21,11.46-5.36,23.12-10.41,35.63-13.64,6.39-1.65,12.53-3.07,19.16-3.07,7.28,0,14.27.96,21.43,2.02Z"/>
  <path class="cls-2" d="M340.11,279.01c4.99,16.41,6.55,37.1-6.06,50.43l-27.82-12.77-11.19-6.56c-4.17-2.44-4.45-9.61-4.99-15-.39-8.03-.16-15.87.54-23.81,3.73-3.75,6.66-7.6,9.51-12.24l29.73,9.1c-.49,1.06-1.07,2.58-.36,3.1,1.47,1.09,3.41,1.11,5.15,1.87-.78,2.32-.24,4.19,1.67,4.75l3.82,1.14Z"/>
  <path class="cls-2" d="M187.12,328.76c-9-9.02-13.91-23.4-10.52-35.4l3.73-13.18c1.82-1,4.07-.84,5.03-2.58.5-.92.27-2.04-.02-3.18l5-1.98c1.04-.41-.04-2.41-.4-3.14l29.98-9.32c2.91,4.66,5.87,8.61,9.68,12.44.73,8.47.79,16.74-.6,25.15-1.09,6.74-4.16,12.79-9.65,16.85-2.54,1.88-5.45,2.97-8.38,4.21l-23.84,10.12Z"/>
  <path class="cls-2" d="M354.36,282.2c.19-.56.58-.65,1.27-.56l2.98-9.77c-.47-.39-1.04-.22-1.12-.08l-2.83,9.57c-.23.3-.55.26-.68.2l2.61-9.79-.84-.27-3.03,9.52-3.19-.6c2.23-3.16,2.32-6.81,3.58-9.91l-.84-.3-3.19,9.85-.58-.14,2.58-9.4c.08-.3-.9-.5-1.05-.03l-2.76,8.48c-.3.93-3.28.37-3-.61l2.62-9.32c-.26-.29-.55-.42-.72-.47l-3.17,9.39c-3.3-.49-6.33-1.3-5.63-3.5l3.71-11.65,41.75,12.74c.44.09,1.86-.63,1.99.18l-4.17,13.91-10.32-2.98c-.53-.15-2.24-.06-2-.98l2.55-9.56-.79-.22-3,9.5c-.96-.02-1.62-.24-2.42-.75l2.66-9.78-.75-.26-3.28,9.86-.48-.3,2.68-9.29c-.18-.37-1.02-.34-1.11-.06l-2.63,8.38c-.29.92-3.18.76-3.13-.26l2.57-9.79-.74-.22-3.05,9.28h-3.05ZM347.85,268.58l-3.07,10.17,1.09.33,3.07-10.17-1.09-.33ZM362.19,273.06l-3.06,10.06,1.12.34,3.06-10.06-1.12-.34ZM371.99,275.91l-3.11,10.18,1.09.33,3.11-10.18-1.09-.33Z"/>
  <path class="cls-2" d="M161.47,273.15l2.89,10.02c-.39.29-.86.46-1.66.57l-3.21-9.46c-.18.06-.5.23-.73.42l2.73,9.06-.55.48-3.28-10.01-.83.19,2.76,9.96c.12.42-.54.6-.75.61-.37.02-.59,0-.76-.54l-2.63-8.35c-.3-.09-.64-.05-.77,0l2.51,9.42-.58.13-3.2-9.83-.84.28,2.67,9.59c-.14.67-1.98,1.24-2.46.73l-2.88-8.99c-.25-.02-.61,0-.78.06l2.68,9.27c-.08.33-.33.49-.48.54l-3.49-10.06-.79.22,2.97,10.25-10.63,3.29-4.41-13.93c.97-.64,1.69-.07,2.35-.28l41.43-12.78,3.77,11.71c.35,1.09-.4,2.03-1.31,2.31l-4.25,1.3-2.71-8.87c-.17-.57-.35-.62-.66-.56-.63.12-.5.61-.36,1.05l2.62,8.69-.67.03-3.01-9.71c-.08-.24-1.15-.1-1.12.14l2.92,9.96c.1.34-1.32.7-1.42.36l-2.65-8.65c-.05-.16-.54-.38-1.03-.11l2.66,9.29-.68.04-2.77-9.17c-.21-.69-1.31-.42-1.19-.01l2.74,9.49c-.29.66-2.06,1.13-2.47.65l-2.97-9.1-.74.26,2.71,9.3c-.15.19-.4.35-.54.39l-3.08-9.69c-.12-.38-1.14-.26-1.07,0Z"/>
  <rect class="cls-2" x="116.37" y="283.74" width="18.55" height="8.69" transform="translate(-81.34 51.58) rotate(-17.63)"/>
  <path class="cls-2" d="M187.9,254.87c.27,3.52-.46,7.24-2.29,10.21.07-3.43,2.09-6.55,1.49-10.04-.36-2.09-.24-3.99-.46-6.1l-.46-4.29c-.24-2.25-.3-4.24-.39-6.52-.08-1.83-.69-3.68-.34-5.59.31-1.68-.39-3.22-.37-4.8l.15-16.6.35-6.99c1.29-12.23,2.94-24.83,8.87-35.74-3.64,10.5-6.68,20.42-7.51,31.39-.13,1.67-.45,3.4-.55,5.06l-.4,6.92-.04,15.97c0,1.58.66,3.11.36,4.79-.33,1.91.27,3.76.34,5.59.09,2.27.18,4.27.39,6.52l.44,4.73.42,5.49Z"/>
  <path class="cls-2" d="M336.82,264.83c-1.4-2.67-1.6-5.46-1.63-8.32l-.14-18.75.43-4.41.34-4.71c.09-1.33.4-2.66.39-3.91l-.13-17.54c-.09-11.82-3.57-22.62-7.54-33.57,5.76,10.49,7.36,22.06,8.4,33.59l.16,17.51-.43,3.88-.32,4.75-.42,4.4.05,18.76c0,2.81,1.12,5.21.84,8.32Z"/>
  <rect class="cls-2" x="384.86" y="281.15" width="8.69" height="7.81" transform="translate(3.9 575.35) rotate(-73.21)"/>
  <path class="cls-2" d="M176.13,290.88c-2.98,10.76-1.29,20.54,3.72,30.51-6.39-8.37-7.64-19.69-4.83-29.61l3.2-11.28c.27-.01.53.01.75.08l-2.85,10.3Z"/>
  <path class="cls-2" d="M227.06,307.77c2.26-5.42,3.95-10.96,4-17.07l.13-14.92c0-.49-1.1-1.39.27-2.01l.6,2.88-.08,13.19c-.9,6.09-.74,12.66-4.92,17.93Z"/>
  <path class="cls-2" d="M331.96,268.11l-.45-.58c-.02-1.03-.15-2.49,1.2-2.57-.2.65-.62,1.54.28,1.99.29-.5.83-1.57,1.73-1.29.51.16,1.19.26,1.97.77l-1.53,5.05c-1.06-.23-2.16-.36-2.71-1.04-.37-.45.25-1.57.38-1.97-.12-.45-.69-.45-.88-.37Z"/>
  <path class="cls-2" d="M208.99,211.15c-1.19-7.48.24-15.67,4.18-22.15.3-.5.8-1.18,1.36-1.34-3.17,5.72-4.92,11.55-5.22,18.22-.08,1.63,1.21,3.38-.32,5.27Z"/>
  <path class="cls-2" d="M198.05,236.04c-2.46-4.51-3.31-9.79-3.14-15.17.08-2.43.01-5.14,2.17-6.72-.51,2.33-1.66,4.06-1.22,6.29-.48,5.39.76,10.52,2.6,15.29-.1.11-.01.27.14.26.05.09.13.17.22.22.1.05.18.13.21.22l.22.64c.02.07.1.18.41.39-.24-.34-.58,0-.24.24-.23-.3-.33-.37-.4-.41-.17-.1-.33-.4-.21-.65-.05-.09-.13-.17-.22-.21-.1-.05-.18-.13-.21-.22-.04-.14-.16-.24-.34-.17Z"/>
  <path class="cls-2" d="M304.5,191.14c1.93,6.79,5.28,12.85,5.6,20.08-2.38-7.08-4.05-14.22-7.03-21.25.07-.29.61-.41.81-.02l.63,1.19Z"/>
  <path class="cls-2" d="M321.64,234.79c1.45-5.86,2.85-11.22,1.87-17.14-.19-1.15-1.49-2.16-.64-3.6,2.99,5,2.07,15.92-1.23,20.75Z"/>
  <rect class="cls-2" x="183.78" y="266.89" width="3.29" height="5.44" transform="translate(-71.12 66.49) rotate(-17.11)"/>
  <path class="cls-2" d="M153.1,358.44c-2.92,5.37-4.24,10.94-6.02,16.62.48-8.37,4.15-15.97,9.16-22.38l-3.14,5.76Z"/>
  <path class="cls-2" d="M394.47,295.81l5.18-17.28c.29-.13.51-.17.68-.11l-5.11,17.49c-.38.16-.57.03-.75-.1Z"/>
  <path class="cls-2" d="M114.71,300.41l-5.06-16.59.37-.71,5.5,17.03c-.25.26-.48.34-.81.28Z"/>
  <path class="cls-2" d="M306.68,241.38c-.94,5.77-3.77,10.82-6.7,15.33l6.7-15.33Z"/>
  <path class="cls-2" d="M218.76,255.94c-2.14-4.67-5.22-9.21-5.97-14.6,2.25,4.09,3.16,8.19,5.55,11.9.31.74.69,1.36.78,2.24.02.19.11.37.43.55-.24-.34-.57,0-.25.24-.14-.31-.3-.39-.54-.34Z"/>
  <path class="cls-2" d="M373.92,374.65c-1.4-.69-1.48-2.54-1.97-3.98l-2.55-7.5c2.24,3.64,3.39,7.24,4.53,11.48Z"/>
  <path class="cls-2" d="M116.44,295.22l-2.81-8.42c.24-.29.49-.33.55-.35l3.04,8.52c-.27.35-.64.28-.77.25Z"/>
  <path class="cls-2" d="M393.04,290.98c.3-3.3,1.31-6.15,2.69-9.35.1,3.25-1.13,6.25-2.69,9.35Z"/>
  <path class="cls-2" d="M137.2,289.58c-1.14-2.69-2.39-5.63-2.58-8.94,1.47,2.82,2.66,5.53,2.58,8.94Z"/>
  <path class="cls-2" d="M382.69,288.14l2.14-8.76c.62-.29.94.17.78.67-.91,2.75-1.17,5.5-2.91,8.09Z"/>
  <path class="cls-2" d="M388.06,272.64l-2.21,6.08c-.53-2.36,1.44-7.18,2.06-6.85.23.12.27.42.14.77Z"/>
  <path class="cls-2" d="M373.5,375.83c1.49.8,2.22,5.61,1.03,6.61l-1.03-6.61Z"/>
  <path class="cls-2" d="M134.27,279.76c-1.21-2.14-2.2-4.32-1.83-6.77.96,2.21,1.95,4.36,1.83,6.77Z"/>
  <path class="cls-2" d="M338.82,266.79l-1.85,5.09c-.2.02-.49,0-.65-.05l1.79-5.48c.11-.35.94-.15.72.44Z"/>
  <path class="cls-2" d="M182.98,273.18l-1.5-5.39c.08-.08.32-.28.34-.27,1.09,1.63,1.24,3.63,1.9,5.42-.2.28-.5.31-.75.24Z"/>
  <path class="cls-2" d="M138.89,295.65l-1.51-4.95c.17-.2.4-.32.5-.34.98,1.51,1.12,3.39,1.75,5.05-.2.29-.5.32-.75.24Z"/>
  <path class="cls-2" d="M146.72,382.45c-1.39-1.34-.31-2.6-.24-3.83.06-1-.17-1.77.96-2.21l-.71,6.04Z"/>
  <path class="cls-2" d="M381.02,294.38c-.49-1.78.23-3.78,1.4-5.36.09,1.91-.39,3.43-1.4,5.36Z"/>
  <path class="cls-2" d="M240.78,159.45l1.82-5.18c.12,0,.36.29.3.26.14,1.75-1.02,3.12-1.34,4.74-.21.36-.58.3-.78.19Z"/>
  <rect class="cls-2" x="140.79" y="291.73" width=".88" height="3.89" transform="translate(-74.58 49.51) rotate(-15.79)"/>
  <path class="cls-2" d="M391.48,295.75c-.06-1.71.44-2.96,1.28-4.06.11,1.5,0,3.07-1.28,4.06Z"/>
  <rect class="cls-2" x="117.26" y="296.36" width=".82" height="3.96" transform="translate(-88.31 52.52) rotate(-18.43)"/>
  <path class="cls-2" d="M183.27,277.86c.75-1.25.48-2.4-.15-3.87,1.42-.03,1.33,1.24,1.46,1.97.18,1.02-.1,1.62-1.31,1.9Z"/>
  <rect class="cls-2" x="376.96" y="291.79" width="3.84" height=".9" transform="translate(2.92 588.23) rotate(-75.86)"/>
  <path class="cls-2" d="M336.01,276.18c-.92-.88-.75-2.97.63-3.62l-.38,3.42.42.39c-.23-.35-.58,0-.23.23l-.44-.42Z"/>
  <rect class="cls-2" x="112.9" y="282.72" width=".84" height="2.89" transform="translate(-76.05 43.89) rotate(-16.5)"/>
  <path class="cls-2" d="M326.35,169.69c.24.35.58,0,.23-.23l.43.45c.65.69,1.68,2.05,1.4,3.48-1.05-.88-1.5-2.11-1.66-3.3l-.4-.4Z"/>
  <path class="cls-2" d="M188.41,269.29h.52c.2.84,1.13,1.68.53,2.86-1.1-.94-.95-1.97-1.05-2.86Z"/>
  <path class="cls-2" d="M397.21,278.99c-.26.87-.28,1.49-.85,2.24-.73-.72-.42-1.4.01-2.19-.29-.98,1.1-.93.83-.04Z"/>
  <path class="cls-2" d="M385.33,271.87c.44.25-.03,1.82-.98,2.64-.26-1.61.43-2.96.98-2.64Z"/>
  <path class="cls-2" d="M338.73,265.58c-.66-1.08-.02-2.19.93-2.82.05.97.01,1.81-.93,2.82Z"/>
  <path class="cls-2" d="M135.5,275.79c-.88-.75-.84-1.66-.48-2.64.91.56.95,1.77.48,2.64Z"/>
  <path class="cls-2" d="M181.33,266.16c-.9.08-1.36-1.42-.95-2.01.56.12,1.41,1.56.95,2.01Z"/>
  <path class="cls-2" d="M197.93,162.61c-.47,1.03-.86,1.63-1.65,2.08l.93-2.51c.13-.34.93-.14.71.43Z"/>
  <path class="cls-2" d="M330.79,270.61c-.37-1.14.07-1.9.59-2.68.37,1.13-.06,1.91-.59,2.68Z"/>
  <path class="cls-1" d="M236.66,166.15l-4.1,3.67,3.92-4.38c.46.08.49.44.19.71Z"/>
  <path class="cls-2" d="M324.19,165.8c.24.35.58,0,.23-.23l.41.42c.32.32.68.96.62,1.5l.42.39c-.24-.35-.58,0-.23.23-.24-.3-.35-.38-.41-.42-.4-.27-.72-.95-.62-1.5l-.41-.39Z"/>
  <path class="cls-2" d="M188.55,267.6l-.64.34c-.31-.45-.55-1.11-.16-1.64.47.03.7.88.8,1.29Z"/>
  <path class="cls-2" d="M366.98,359.87c.24.35.58,0,.23-.23l.41.42c.33.34.68.96.62,1.5l.42.39c-.24-.35-.58,0-.23.23-.24-.3-.35-.38-.42-.42-.38-.25-.72-.95-.62-1.5l-.41-.39Z"/>
  <path class="cls-1" d="M188.93,269.28h-.52c-.04-.34-.26-.98-.5-1.33l.64-.34.38,1.68Z"/>
  <path class="cls-2" d="M244.23,154.14c.24.34.58,0,.23-.24l.39.41c.1.11.44.32.64.68.21.96-1.18.82-.84-.09.06-.36-.09-.59-.42-.76Z"/>
  <path class="cls-2" d="M221.39,259.65c.32-.44.51,0,.62.13.27.3.16.8-.08.87-.5.14-.96-.42-.54-1Z"/>
  <path class="cls-2" d="M321.6,161.91c.24.35.58,0,.23-.23l.39.41.21.22.21.23c.16.17.61.42.66.84.06.47-.48.6-.66.45s-.33-.4-.21-.89c.06-.25-.1-.37-.22-.42-.1-.04-.16-.15-.22-.21l-.41-.4Z"/>
  <path class="cls-1" d="M227.42,268.51c.79.93,1.4.32.47-.47l.55.81c.04.06.12.15.22.2.1.05.18.13.21.22l.22.65c.03.09.11.17.21.22.09.05.15.14.22.21l.21.22.22.21.22.22.22.22.22.22.22.22.22.22.21.21.41.39c-.23-.35-.58,0-.23.23l-.39-.41-.21-.21-.22-.22-.22-.22-.22-.22-.22-.22-.22-.22-.22-.21-.21-.22c-.07-.07-.13-.16-.22-.21-.1-.05-.18-.13-.21-.22l-.22-.65-.22-.22-.21-.21c-.05-.05-.22-.27-.81-.55Z"/>
  <path class="cls-1" d="M218.03,182.83c-.56,1.21-1.17,2.17-2.38,2.52l5.57-5.97c-.76,1.36-1.99,2.16-3.2,3.45Z"/>
  <circle class="cls-2" cx="223.46" cy="262.79" r=".48"/>
  <circle class="cls-2" cx="296.94" cy="261.5" r=".48"/>
  <circle class="cls-2" cx="222.6" cy="261.5" r=".48"/>
  <path class="cls-2" d="M290.53,269.68c1.56-2.03,2.78-4.22,5.01-6.01-1.27,2.24-2.99,4.25-5.01,6.01Z"/>
  <circle class="cls-2" cx="297.8" cy="260.2" r=".48"/>
  <path class="cls-1" d="M363.96,355.56c.24.34.58,0,.23-.24l.39.41c.24-.12.53-.02.65.22s.02.51-.22.65c-.21.12-.65.05-.65-.42,0-.26-.08-.43-.4-.61Z"/>
  <circle class="cls-2" cx="298.67" cy="258.9" r=".48"/>
  <path class="cls-1" d="M355.31,345.61c.23.35.58,0,.23-.23l.39.41.21.21.22.22.22.22.22.22.22.22.22.22.22.22.22.22.22.22.22.22.22.22.22.22.22.22.22.22.22.22.22.22.22.22.22.22.22.22.22.22.58.95c.11.17.2.27.28.35l.22.21.21.22.55.55.31.32c.21.22.39.5.58.95.08.19.19.28.28.35.24-.12.53-.02.65.22s.02.51-.22.65c-.2.12-.66.05-.65-.43,0-.29-.13-.36-.21-.44-.21-.22-.4-.5-.59-.94-.08-.19-.2-.28-.28-.35l-.55-.54-.31-.32-.22-.21-.21-.22-.58-.95c-.11-.17-.2-.27-.28-.35l-.22-.21-.21-.22-.22-.22-.22-.22-.22-.22-.22-.22-.22-.22-.22-.22-.22-.22-.22-.22-.22-.22-.22-.22-.22-.22-.22-.22-.22-.22-.22-.22-.22-.22-.22-.22-.21-.21-.41-.39Z"/>
  <circle class="cls-2" cx="246.8" cy="157.76" r=".48"/>
  <path class="cls-2" d="M225.21,265.64c.24.35.58,0,.23-.23l.39.41.21.21.22.22c.22.22.42.47.6.94.07.17.15.32.46.53-.24-.34-.58,0-.23.24l-.4-.41c-.17-.18-.42-.51-.58-.94-.07-.2-.2-.28-.28-.36l-.22-.21-.41-.39Z"/>
  <path class="cls-1" d="M253.31,166.23c.24.35.58,0,.23-.23l.39.41.22.21.22.22c.3.3.48.69.65,1.08.04.09.12.16.21.22.09.05.15.14.22.21l.21.22.22.21.22.22.22.22.22.22.22.22.22.22.22.22.22.22.21.22.22.21c.07.07.17.13.21.22.05.1.13.18.22.21l.65.22c.09.03.17.11.22.21.05.09.14.15.21.22l.22.21.21.22.22.22.22.22.22.22.21.21.41.39c-.23-.35-.58,0-.23.23l-.39-.41-.21-.21-.22-.22-.22-.22-.22-.22-.22-.22-.22-.22-.22-.22-.22-.22-.65-.22c-.09-.03-.17-.12-.22-.21-.05-.09-.14-.15-.21-.22l-.22-.21-.21-.22-.22-.22-.22-.22-.22-.22-.22-.22-.22-.22-.22-.22-.22-.22-.22-.22-.22-.22-.22-.22-.22-.22c-.3-.3-.48-.69-.65-1.08-.04-.09-.12-.16-.21-.22s-.16-.16-.22-.21l-.41-.39Z"/>
  <circle class="cls-2" cx="245.94" cy="156.47" r=".48"/>
  <path class="cls-2" d="M316.85,155.43c.24.34.58,0,.23-.24l.4.42c.17.18.42.5.58.94.07.2.2.28.28.36l.22.21.21.22.21.21.41.39c-.23-.35-.58,0-.23.23l-.39-.41-.21-.21-.22-.22-.22-.22-.22-.22c-.22-.22-.42-.47-.6-.94-.07-.17-.15-.32-.46-.53Z"/>
  <path class="cls-2" d="M200.63,157.61c.57-.75.89-1.64,1.97-2.41-.25.88-.74,1.89-1.97,2.41Z"/>
  <path class="cls-1" d="M319.16,238.76c-.27.39-.76.1-.31-.25.08-.33.17-.64.36-.78.21-.15.59.02.64.21s.15.71-.69.82Z"/>
  <circle class="cls-2" cx="321.14" cy="160.79" r=".48"/>
  <path class="cls-2" d="M320.26,236.27c.32-.57.81-.26.89-.06.1.25.01.51-.22.65-.17.1-.75.07-.67-.59Z"/>
  <path class="cls-1" d="M337.15,328.72c-1.18.44-1.27.98-1.56,1.54-.39-.67.11-1.15.61-1.56-.04-1.04,1.2-.76.94.02Z"/>
  <circle class="cls-2" cx="198.39" cy="161.22" r=".48"/>
  <path class="cls-1" d="M224.1,312.42l-1.49.94.8-1.34c.23-.38.44-.46.69-.39s.45.57,0,.78Z"/>
  <path class="cls-1" d="M181.99,324.86c.24.35.58,0,.23-.23l.39.42.22.64c.03.09.12.17.21.22.09.05.15.14.22.21l.21.22.65.65.22.22.22.22.22.22c.3.3.52.69.65,1.07.03.07.1.18.41.39-.24-.34-.58,0-.23.24l-.4-.42c-.25-.26-.51-.7-.64-1.07-.03-.09-.11-.17-.21-.22-.09-.05-.15-.14-.22-.21l-.21-.22-.65-.65-.21-.22c-.07-.07-.13-.16-.22-.21-.1-.05-.18-.13-.21-.22l-.22-.65-.41-.39Z"/>
  <circle class="cls-2" cx="296.08" cy="262.79" r=".48"/>
  <circle class="cls-1" cx="215.25" cy="186.29" r=".48"/>
  <circle class="cls-2" cx="323.74" cy="164.68" r=".48"/>
  <path class="cls-2" d="M251.29,164.06c.48,1.07.84.7.62-.07.01.47.2.67.49.85-.24-.34-.58,0-.23.24l-.87-1.02Z"/>
  <path class="cls-2" d="M237.78,164.23l2.41-3.42c-.5,1.28-1.15,2.54-2.41,3.42Z"/>
  <path class="cls-2" d="M179.83,321.83c.24.35.58,0,.23-.23l.39.41.22.64c.03.09.12.16.21.22s.16.16.22.21l.41.4c-.24-.35-.58,0-.23.23l-.39-.41c-.05-.06-.12-.16-.22-.21s-.18-.13-.21-.22l-.22-.65-.41-.39Z"/>
  <polygon class="cls-1" points="222.45 178.29 222.74 178.29 223.02 178.29 222.74 178.3 222.45 178.3 222.17 178.29 222.45 178.29"/>
  <path class="cls-1" d="M308.2,146.35c.23.35.58,0,.23-.23l.39.41.21.21.22.22.22.22.22.22.22.22.22.22.22.22.22.22.22.22.22.22.22.22.22.22.22.22.22.22.22.22.22.22.22.22.22.22.22.22.22.22.22.22.22.22.22.22.22.22.22.22.22.22.22.21.21.22c.07.07.13.17.22.21.1.05.18.13.21.22l.22.65c.03.09.11.17.21.22.09.05.15.14.22.21l.21.22.22.21.41.39c-.23-.35-.58,0-.23.23l-.39-.41-.22-.21-.21-.22c-.07-.07-.13-.16-.22-.21-.1-.05-.18-.13-.21-.22l-.22-.65-.22-.22-.22-.22-.22-.22-.22-.22-.22-.22-.22-.22-.22-.22-.22-.22-.22-.22-.22-.22-.22-.22-.22-.22-.22-.22-.22-.22-.22-.22-.22-.22-.22-.22-.22-.22-.22-.22-.22-.22-.22-.22-.22-.22-.22-.22-.22-.22-.22-.22-.22-.22-.22-.22-.22-.22-.22-.22-.21-.21-.41-.39Z"/>
  <path class="cls-1" d="M202.9,155.06c1.13-1.84,2.55-3.63,4.55-5.01l-4.55,5.01Z"/>
  <path class="cls-1" d="M158.78,349.59c1.04-2.06,2.7-3.59,4.57-5.05l-4.57,5.05Z"/>
  <path class="cls-2" d="M156.51,352.25c.44-.76.74-1.41,1.55-2.13-.16.83-.65,1.65-1.55,2.13Z"/>
  <circle class="cls-1" cx="208.77" cy="149.12" r=".37"/>
  <rect class="cls-2" x="322.07" y="213.58" width=".31" height=".31" transform="translate(-56.76 290.45) rotate(-45)"/>
  <rect class="cls-2" x="197.16" y="213.58" width=".31" height=".31" transform="translate(-93.34 202.12) rotate(-45)"/>
  <circle class="cls-1" cx="197.96" cy="213.09" r=".37"/>
  <rect class="cls-1" x="214.45" y="187.22" width=".31" height=".31" transform="translate(-69.64 206.63) rotate(-45)"/>
  <rect class="cls-2" x="321.21" y="235.19" width=".31" height=".31" transform="translate(-72.29 296.17) rotate(-45)"/>
  <rect class="cls-1" x="225.25" y="175.98" width=".31" height=".31" transform="translate(-58.52 210.97) rotate(-45)"/>
  <rect class="cls-1" x="226.55" y="174.68" width=".31" height=".31" transform="translate(-57.23 211.51) rotate(-45)"/>
  <rect class="cls-1" x="261.99" y="174.25" width=".31" height=".31" transform="translate(-46.54 236.45) rotate(-45)"/>
  <rect class="cls-2" x="319.91" y="237.36" width=".31" height=".31" transform="translate(-74.2 295.88) rotate(-45)"/>
  <path class="cls-1" d="M199.71,237.98c.23.35.58,0,.23-.23l.39.41.21.21.41.39c-.23-.35-.58,0-.23.23l-.39-.41-.21-.21-.41-.39Z"/>
  <rect class="cls-1" x="227.85" y="173.82" width=".31" height=".31" transform="translate(-56.24 212.18) rotate(-45)"/>
  <rect class="cls-1" x="229.14" y="172.52" width=".31" height=".31" transform="translate(-54.94 212.71) rotate(-45)"/>
  <path class="cls-1" d="M230.38,171.82l1.08-1.08.21.21-.85.89c-.13.21-.32.23-.43,0Z"/>
  <path class="cls-2" d="M219.6,257c.23.34.58,0,.23-.23l.58.58c-.23-.34-.58,0-.23.23l-.58-.58Z"/>
  <rect class="cls-2" x="325.96" y="168.63" width=".31" height=".31" transform="translate(-23.83 280.03) rotate(-45)"/>
  <path class="cls-2" d="M223.92,263.92c.23.35.58,0,.23-.23l.39.41.21.21.41.39c-.23-.35-.58,0-.23.23l-.39-.41-.21-.21-.41-.39Z"/>
  <rect class="cls-2" x="194.57" y="167.77" width=".31" height=".31" transform="translate(-61.71 186.87) rotate(-45)"/>
  <rect class="cls-2" x="195" y="166.9" width=".31" height=".31" transform="translate(-60.97 186.92) rotate(-45)"/>
  <rect class="cls-2" x="195.43" y="166.04" width=".31" height=".31" transform="translate(-60.23 186.97) rotate(-45)"/>
  <path class="cls-1" d="M331.96,268.11c-.17-.12-.44-.37-.45-.58l.45.58Z"/>
  <circle class="cls-2" cx="237.26" cy="165.12" r=".39"/>
  <rect class="cls-2" x="195.86" y="165.17" width=".31" height=".31" transform="translate(-59.49 187.03) rotate(-45)"/>
  <path class="cls-2" d="M249.85,162.34c.23.35.58,0,.23-.23l.39.41.21.21.41.39c-.23-.35-.58,0-.23.23l-.39-.41-.21-.21-.41-.39Z"/>
  <circle class="cls-1" cx="287" cy="273.17" r=".37"/>
  <path class="cls-2" d="M248.55,160.61c.23.35.58,0,.23-.23l.39.41.21.21.41.39c-.23-.35-.58,0-.23.23l-.39-.41-.21-.21-.41-.39Z"/>
  <path class="cls-1" d="M306.47,145.05c.23.35.58,0,.23-.23l.4.41c.05.05.15.13.21.22s.13.17.23.21c.28.11.21.42-.07.43l-.38-.43-.21-.21-.41-.39Z"/>
  <rect class="cls-2" x="240.38" y="159.99" width=".31" height=".31" transform="translate(-42.79 216.99) rotate(-45)"/>
  <circle class="cls-2" cx="199.26" cy="159.92" r=".37"/>
  <path class="cls-2" d="M319.44,158.88c.23.35.58,0,.23-.23l.39.41.21.21.41.39c-.23-.35-.58,0-.23.23l-.39-.41-.21-.21-.41-.39Z"/>
  <path class="cls-2" d="M247.26,158.88c.23.35.58,0,.23-.23l.39.41.21.21.41.39c-.23-.35-.58,0-.23.23l-.39-.41-.21-.21-.41-.39Z"/>
  <circle class="cls-2" cx="200.12" cy="158.63" r=".37"/>
  <circle class="cls-2" cx="226.49" cy="308.61" r=".37"/>
  <path class="cls-2" d="M291.04,308.16c-3.16-2.98-3.23-19.38-2.92-26.48l.35-8.19c.01-.34.34-.66.49-.76.16-.11.6.04.65.23.04.17-.29.57-.31.84l-.31,7.86c-.34,8.69-.5,17.74,2.37,26.1.03.2.03.38.37.6-.24-.34-.58,0-.23.24l-.46-.43Z"/>
  <circle class="cls-2" cx="225.62" cy="309.91" r=".37"/>
  <circle class="cls-2" cx="224.76" cy="311.2" r=".37"/>
  <path class="cls-2" d="M339.84,324.11c3.74-7.78,5.46-16.03,5.13-25.01-.25-6.76-2.02-12.78-2.97-19.68,3.38,8.74,4.09,18.03,3.71,27.24-1.06,6.05-1.59,12.31-5.86,17.44Z"/>
  <rect class="cls-2" x="181.6" y="324.23" width=".31" height=".31" transform="translate(-176.14 223.53) rotate(-45)"/>
  <circle class="cls-2" cx="339.3" cy="325.03" r=".37"/>
  <circle class="cls-2" cx="338.43" cy="326.33" r=".37"/>
  <circle class="cls-2" cx="337.57" cy="327.63" r=".37"/>
  <rect class="cls-1" x="351.03" y="341.52" width=".31" height=".31" transform="translate(-138.74 348.4) rotate(-45)"/>
  <path class="cls-1" d="M352.29,342.58c.23.35.58,0,.23-.23l.39.41.21.21.22.22.21.21.41.39c-.23-.35-.58,0-.23.23l-.39-.41-.21-.21-.22-.22-.21-.21-.41-.39Z"/>
  <rect class="cls-1" x="365.3" y="357.08" width=".31" height=".31" transform="translate(-145.57 363.04) rotate(-45)"/>
  <rect class="cls-2" x="365.73" y="357.51" width=".31" height=".31" transform="translate(-145.75 363.47) rotate(-45)"/>
  <rect class="cls-1" x="305.22" y="143.56" width=".31" height=".31" transform="translate(-12.18 258.02) rotate(-45)"/>
  <path class="cls-2" d="M366.12,358.57c.23.34.58,0,.23-.23l.58.58c-.23-.34-.58,0-.23.23l-.58-.58Z"/>
  <rect class="cls-2" x="368.75" y="362.7" width=".31" height=".31" transform="translate(-148.53 367.13) rotate(-45)"/>
  <path class="cls-2" d="M370.59,372.66c-6.93-4.33-14.04-8.34-21.97-11.05-7.45-2.55-14.91-3.13-22.71-4.06-10.56-1.26-20.49-.64-30.79,2.06-12.71,3.33-24.72,7.95-36.53,13.77l-10.85-5.23c-15.87-6.47-32.52-10.27-49.72-11.01-18.39-.79-34.11,5.34-49.03,16.18,3.09-17.51,15.37-30.97,30.52-38.69,10.81-5.51,21.7-10,32.91-14.61,3.45-1.42,6.83-2.68,9.81-4.89,11.68-8.67,11.16-25.28,10.74-39.68,7.77,6.71,16.86,9.3,26.79,8.96s19.36-3.03,27.42-9.98l-.17,20.33c-.03,3.76.69,7.37,1.63,10.94.64,2.41,1.92,4.27,4.04,5.47l13.24,7.5,29.06,13.36c14.24,6.54,31.93,24.68,36.24,40.15l-.07.28c.48.28-.03.84-.36.39-.03-.05-.11-.13-.19-.19ZM250.86,333.28c-5.2-2.76-10.51-3.16-16.19-3.14l-37.16.13c.04.22.04.53,0,.76l38,.14c4.48.02,8.33.99,12.3,2.64.69.15,2.2.09,3.05-.53ZM284.87,331.09l36.29-.04c-.04-.25-.03-.56,0-.77l-37.59-.13c-5.44-.02-10.63.2-15.75,3.21,2.18,1.19,4.38-.13,6.35-.79,3.51-1.18,6.95-1.47,10.69-1.48Z"/>
  <path class="cls-3" d="M250.86,333.28c-.84.63-2.36.69-3.05.53-3.96-1.65-7.82-2.63-12.3-2.64l-38-.14c.04-.23.04-.54,0-.76l37.16-.13c5.69-.02,10.99.37,16.19,3.14Z"/>
  <path class="cls-3" d="M284.87,331.09c-3.74,0-7.18.3-10.69,1.48-1.97.66-4.16,1.98-6.35.79,5.11-3.01,10.31-3.23,15.75-3.21l37.59.13c-.04.21-.04.52,0,.77l-36.29.04Z"/>
  <path class="cls-3" d="M263.49,265.35l-8.04.04c-3.25.02-5.89-1.78-7.85-4.25l-3.25-4.11c-1.7-2.15-4.14-2.61-6.71-3.16,3.54-.47,6.96.04,9.69-2.23,1.49-1.24,2.65-2.97,4.6-3.6,2.44-.79,4.94.12,7.43,0l6.01-.31c2.74-.14,4.55,1.69,6.45,3.48s4.76,2.02,7.56,2.71c-2.6,1.28-4.75,2.86-6.27,5.38-2.01,3.35-5.45,6.02-9.62,6.04ZM250.6,250.85c.17-.38-.14-.61-.36-.39l-.66.67c-.33.33.3.76.7.43.07.82-.46,1.39-1.32,1.73l-3.62,1.41c5.41,4.49,5.19,9.19,12.74,9.75,5.72.42,10.7-2.16,13.26-7.64-3,.18-6.31.75-9.53.02-1.36-.31-2.06-.53-3.46-.19-3.3.8-7.05.8-10.35-.59,2.49-1.86,6.48,1.64,10.23-1.44,3.23-.25,4.41,1.42,8.48,1.36l5.56-.08c.74-.01,1.46-1.15,1.86-1.63-2.68-.53-4.55-1.51-6.32-3.41-1.08-1.16-3.28-2.35-4.83-1.77-5.88,2.2-6.91-2.07-10.75,1.37l-.86.77c-.16.15-.6-.16-.75-.37ZM269.49,250.26c-.58-.33-.86.59-.04.45l.04-.45ZM269.93,250.69l-.22.21c.04.1.15.16.21.22l.22-.22-.21-.21ZM270.32,251.53l.23-.23c-.23-.35-.58,0-.23.23ZM244.66,255.7c.23.35.58,0,.23-.23l-.23.23ZM245.29,255.88l-.22.22.21.21.22-.22-.21-.21ZM272.74,257.4c.12.24.3.22.43,0l1.29-1.32-.21-.21-1.51,1.52ZM245.72,256.31l-.22.22.22.22.22-.22-.22-.22ZM246.15,256.74l-.22.22.22.22.22-.22-.22-.21ZM246.58,257.18l-.21.21.22.22.22-.22c-.09-.05-.15-.14-.22-.21ZM247.02,257.61c-.09.05-.17.12-.21.21-.12.24.04.55.2.65l.23-.22-.22-.64ZM272.52,257.61l-.22.22.22.22.22-.22-.22-.22ZM247.41,258.88l.24-.24c-.24-.34-.58,0-.24.24ZM270.66,260.52c.93-.58,1.14-1.28,1.6-2.04-.92.47-1.22,1.19-1.6,2.04ZM247.69,259.16c.23.34.58,0,.23-.23l-.23.23ZM248.27,259.74l.23-.23c-.23-.34-.58,0-.23.23ZM248.56,260.46c.23.34.58,0,.23-.23l-.23.23ZM249.14,261.04l.23-.23c-.23-.34-.58,0-.23.23ZM249.67,261.07c-.27.01-.35.32-.07.43l.07-.43ZM250.04,261.5l-.22.21c.06.09.16.16.21.22l.22-.22-.21-.21ZM250.43,262.34l.23-.23c-.23-.35-.58,0-.23.23Z"/>
  <path class="cls-3" d="M246.72,201.58l-2.49.12c-6.47-3.3-13.79-4.98-21.02-3.6-2.3.44-4.29,1.24-6.77,1.01,5.75-6.21,16.05-5.86,24.28-3.69,2.8.74,5.61,1.94,7.62,4.01.46.62-.94,2.12-1.63,2.15Z"/>
  <path class="cls-3" d="M245.95,214.61c-.32,1.65-1.77,2.78-3.39,3.83-7.93,5.14-18.41,2.97-25.39-4.06,2.37.07,4.09.51,5.33-1.41.64.97,1.57.66,2.27.54,6.04,5.27,11.81,5.24,18.61.94.63.13,1.46.35,2.56.16Z"/>
  <path class="cls-3" d="M300.89,214.62c-7.89,7.6-20.19,9.26-27.63,1.84-.57-.57-1.01-1.12-.82-2.16.84.5,1.79.47,2.72.25,5.76,4.3,13.47,4.08,18.48-1.48.63.83,1.59.53,2.39.51l1.77.82c1.05-.27,2.19-.19,3.08.22Z"/>
  <path class="cls-3" d="M212.54,236.3c-5.72,1.6-11.79-4.14-14.56-9.35-1.89-3.55-.52-7.32,3.25-8.95,1.84-.8,4.62-.95,6.55.01,2.03,1.02,2.77,3.46,3.51,5.45,1.02,4.2,1.34,8.13,1.25,12.84ZM209.44,234.91c.04-5.73-.36-13.21-4.35-16.23-1.76.1-3.43,1.45-4.23,2.78-2.47,4.15,3.26,10.45,8.58,13.45ZM207.93,219.83c.24.35.57,0,.25-.23l-.25.23ZM208.75,219.94c-.24.12-.3.26-.59.32,2.4,4.86,2.11,9.99,2.69,15.67,1.4-5.6.05-11.24-2.1-16ZM200.51,228.29c-1.02-2.93-1.88-4.81-.64-7.42-2.55.85-1.56,6.23.64,7.42ZM200.58,228.91c.24.35.58,0,.23-.23l-.23.23ZM201.2,229.08l-.22.22c.05.05.12.16.22.21l.21-.21-.21-.21ZM202.29,230.81c.04.15.13.3.21.43l.22-.22-.43-.65-.65-.86-.21.22c.11.48.39.91.87,1.08ZM202.93,231.24l-.22.22.22.21.22-.22-.22-.21ZM203.32,232.08l.23-.23c-.23-.35-.58,0-.23.23ZM204.23,232.54l-.22.22.22.22.22-.22-.22-.22Z"/>
  <path class="cls-3" d="M319.07,231.12c-2.65,4.34-7.11,6.33-12.02,5.92l.08-8.54c.05-5.58,4.32-12.29,11.04-11.58,1.62.17,2.78.8,3.08,2.61.66,3.89,0,8.02-2.18,11.6ZM317.37,218.35c-.3-.14-.83-.12-1.24.08-6.11,3.65-6.48,9.99-5.99,16.99,8.82-2.79,9.61-15.96,7.23-17.07ZM319.01,218.53c.24.35.58,0,.23-.23l-.23.23ZM319.68,218.73l-.27.19-.05,6.24-2.03,6.36c3.46-3.12,3.6-12.02,2.35-12.8ZM311.35,221.3c1.15-.48,1.22-1.18,1.52-1.64-.66.34-1.86.66-1.52,1.64ZM308.34,236.19c1.25-1.13.7-2.54.66-3.63-.13-4.06.53-7.79,2.17-11.14-3.55,3.21-3.16,9.69-2.84,14.78ZM317.04,231.67l-.22.22.22.22.22-.22-.22-.22ZM316.6,232.89c.46-.21.26-.71,0-.78s-.46,0-.69.39l-.8,1.34,1.49-.94Z"/>
  <path class="cls-3" d="M263.27,236.67c.77.24,1.66.88,2.64-.07.6,1.55-.09,2.5-.72,3.38-1.71,2.38-4.64.48-8.01,1.21-1.35.29-2.66.03-3.51-.98-.73-.87-1.49-2.03-.99-3.62l3.09.43c.8,1.16,1.94,3.12,3.57,3.14s2.88-2.25,3.92-3.48Z"/>
  <path class="cls-3" d="M295.6,242.53c-.45-.35-.52-.73-.86-1.69-.74.58-.73,1.15-1.07,2.18-.57-2.09-1.76-3.55-4.15-4.2,2.06-.27,3.42-1.5,4.03-3.82.5.61.5,1.07.83,2.05.8-.47.77-1.02,1.04-1.98.63,1.87,1.74,3.21,3.79,3.79-1.79.89-2.87,1.49-3.62,3.68Z"/>
  <polygon class="cls-3" points="301.25 244.89 297.71 244.69 299.02 240.69 302.42 240.97 301.25 244.89"/>
  <path class="cls-3" d="M233.78,264.01l-3.56.38c-.68-1.27-1.32-2.34-1.61-3.8l3.58-.14,1.59,3.56Z"/>
  <path class="cls-3" d="M238.32,269.74c1.37,1.43-1.69.66-2.83,1.62l-2.5-3c-.97-1.16,3.28-.98,3.35-.89l1.02,1.27.96,1Z"/>
  <path class="cls-3" d="M298.87,248.31c.14,1.28-.72,2.37-1.48,3.16s-2.72.88-3.77.26c.5-1.48,1.23-2.61,2.15-3.48l3.1.06Z"/>
  <path class="cls-3" d="M244.84,275.69c-.3,1.1-6.53-.31-5.7-2.22.4-.92,2.73-.56,4.93.82l.82.52c.18.11.01.65-.05.88Z"/>
  <path class="cls-3" d="M247.45,225.23c.81,1.88-5.34,3.38-5.82,1.93-.58-1.78,5.44-2.8,5.82-1.93Z"/>
  <path class="cls-3" d="M223.86,225.74c-1.81,2.05-6.55.05-6.47-.76.16-1.65,3.86-1.18,6.47.76Z"/>
  <path class="cls-3" d="M231.46,228.58c-1.93.15-4.12.08-6.09-.56-.14-.35-.07-.89.11-1.46,1.82-.02,3.92.24,5.9.67.1.19.17.58.08,1.35Z"/>
  <path class="cls-3" d="M252.57,278.54c-1.87.56-3.99.23-5.9-.51-.35-.13-.21-1.25.21-1.32,1.92-.32,5.62.57,5.77.68.12.09.06.85-.08,1.15Z"/>
  <path class="cls-3" d="M239.51,228.84l-5.75.31c-.35-.27-.36-1.17-.18-1.67l5.01-.08c.52,0,.85.13,1.08.37.17.18.22,1.04-.16,1.06Z"/>
  <path class="cls-3" d="M258.5,279.16l-3.66.25c-.21-.64-.22-1.14-.08-1.81l3.58.07c.17.16.41.69.16,1.49Z"/>
  <rect class="cls-3" x="298.66" y="233.88" width="4.33" height="1.81" transform="translate(54.01 525.83) rotate(-87.67)"/>
  <path class="cls-3" d="M303.34,236.67c-.06.25-.87.32-1.2.02l.15-3.68c.02-.5,1.36-.46,1.39-.08.11,1.31.02,2.27-.34,3.74Z"/>
  <path class="cls-3" d="M300.99,224.62c.2,1.32.41,2.65.05,4.04-.33.07-.65.05-.78-.05-.27-.19-.88-2.75-.68-3.9.07-.39,1.07-.33,1.42-.1Z"/>
  <path class="cls-3" d="M302.03,228.6l-.18-3.97c.14-.13.86-.32.96-.1.49,1.08.67,2.42.7,3.77-.2.33-1.06.34-1.47.3Z"/>
  <path class="cls-1" d="M301.85,224.63l.18,3.97c-.39-.03-.65-.01-.99.06.36-1.39.16-2.72-.05-4.04.22.15.74.12.85.01Z"/>
  <path class="cls-3" d="M300.98,198.89c-.37.01-1.26.47-1.85.28-7.85-2.54-16-1.88-23.49,1.73-1.08.52-1.67.62-2.98.8-.98.13-3.35-.85-2.59-2.3,2.33-4.46,23.26-9.02,31.2-.85l.37.39c-.03-.17.01.6-.48.17-.02-.06-.09-.14-.18-.22Z"/>
  <rect class="cls-3" x="355.95" y="277.68" width="10.52" height="1.17" transform="translate(-10.21 542.73) rotate(-73.06)"/>
  <rect class="cls-3" x="341.55" y="273.25" width="10.62" height="1.14" transform="translate(-15.56 526.7) rotate(-73.19)"/>
  <rect class="cls-3" x="365.66" y="280.59" width="10.64" height="1.14" transform="translate(-6.29 553.83) rotate(-73.01)"/>
  <path class="cls-2" d="M250.27,251.55c-.02-.24.1-.56.32-.71.15.21.58.51.75.37l.86-.77c3.84-3.44,4.87.83,10.75-1.37,1.56-.58,3.76.61,4.83,1.77,1.76,1.89,3.64,2.87,6.32,3.41-.39.48-1.11,1.62-1.86,1.63l-5.56.08c-4.07.06-5.25-1.61-8.48-1.36-3.75,3.09-7.74-.41-10.23,1.44,3.31,1.39,7.05,1.39,10.35.59,1.4-.34,2.1-.12,3.46.19,3.22.73,6.53.16,9.53-.02-2.56,5.47-7.55,8.06-13.26,7.64-7.55-.56-7.33-5.26-12.74-9.75l3.62-1.41c.86-.33,1.38-.91,1.32-1.73Z"/>
  <path class="cls-1" d="M250.6,250.85c-.22.15-.34.46-.32.71-.4.33-1.02-.09-.7-.43l.66-.67c.22-.22.53,0,.36.39Z"/>
  <path class="cls-1" d="M269.45,250.71c-.82.13-.54-.78.04-.45l.43.44.21.21.41.39c-.23-.35-.58,0-.23.23l-.4-.41c-.05-.05-.17-.12-.21-.22-.05-.12-.17-.2-.26-.19Z"/>
  <path class="cls-1" d="M244.66,255.7c.23.35.58,0,.23-.23l.39.41.21.21.22.22.22.22.22.22.22.21.21.22c.07.07.13.16.22.21.1.05.18.13.21.22l.22.64c.02.07.1.18.41.39-.24-.34-.58,0-.24.24-.23-.3-.34-.37-.4-.41-.16-.1-.32-.4-.2-.65l-.22-.21-.22-.22-.22-.22-.22-.22-.22-.22-.22-.22-.22-.22-.21-.21-.41-.39Z"/>
  <path class="cls-2" d="M270.66,260.52c.38-.85.69-1.57,1.6-2.04-.46.77-.68,1.46-1.6,2.04Z"/>
  <path class="cls-1" d="M272.74,257.4l1.51-1.52.21.21-1.29,1.32c-.13.21-.31.23-.43,0Z"/>
  <rect class="cls-2" x="272.37" y="257.67" width=".31" height=".31" transform="translate(-102.49 268.21) rotate(-45)"/>
  <path class="cls-2" d="M247.69,259.16c.23.34.58,0,.23-.23l.58.58c-.23-.34-.58,0-.23.23l-.58-.58Z"/>
  <path class="cls-2" d="M248.56,260.46c.23.34.58,0,.23-.23l.58.58c-.23-.34-.58,0-.23.23l-.58-.58Z"/>
  <path class="cls-1" d="M249.6,261.5c-.28-.11-.21-.42.07-.43l.38.43.21.21.41.39c-.23-.35-.58,0-.23.23l-.39-.41c-.05-.06-.15-.13-.21-.22s-.13-.17-.23-.21Z"/>
  <path class="cls-2" d="M209.44,234.91c-5.32-3-11.05-9.3-8.58-13.45.8-1.34,2.47-2.69,4.23-2.78,3.99,3.02,4.38,10.5,4.35,16.23Z"/>
  <path class="cls-2" d="M207.93,219.83c.24.35.57,0,.25-.23.15.33.33.4.57.35,2.15,4.76,3.5,10.4,2.1,16-.58-5.69-.29-10.81-2.69-15.67l-.23-.44Z"/>
  <path class="cls-2" d="M200.51,228.29c-2.2-1.19-3.19-6.57-.64-7.42-1.24,2.61-.38,4.49.64,7.42Z"/>
  <path class="cls-2" d="M202.29,230.38c-.01.13-.03.3,0,.43-.48-.17-.75-.6-.87-1.08-.02-.09-.11-.17-.22-.22-.1-.04-.16-.15-.22-.21l-.41-.4c.24.35.58,0,.23-.23l.39.41.21.21.22.22.65.86Z"/>
  <path class="cls-1" d="M202.29,230.81c-.03-.13-.02-.3,0-.43l.43.65c.06.08.14.15.21.22l.22.21.41.39c-.23-.35-.58,0-.23.23l-.39-.41-.22-.21c-.07-.07-.16-.13-.21-.22-.08-.13-.17-.29-.21-.43Z"/>
  <rect class="cls-1" x="204.07" y="232.6" width=".31" height=".31" transform="translate(-104.77 212.58) rotate(-45)"/>
  <path class="cls-2" d="M317.37,218.35c2.38,1.11,1.59,14.28-7.23,17.07-.49-7-.12-13.34,5.99-16.99.41-.2.93-.22,1.24-.08Z"/>
  <path class="cls-2" d="M308.34,236.19c-.32-5.09-.72-11.57,2.84-14.78-1.65,3.35-2.31,7.08-2.17,11.14.04,1.1.58,2.51-.66,3.63Z"/>
  <path class="cls-2" d="M319.01,218.53c.24.35.58,0,.23-.23.24.3.37.39.44.44,1.25.77,1.12,9.68-2.35,12.8l2.03-6.36.05-6.24-.41-.4Z"/>
  <path class="cls-1" d="M311.35,221.3c-.34-.98.86-1.3,1.52-1.64-.3.46-.38,1.16-1.52,1.64Z"/>
  <path class="cls-1" d="M316.6,232.89l-1.49.94.8-1.34c.23-.38.44-.46.69-.39s.45.57,0,.78Z"/>
  <rect class="cls-2" x="316.89" y="231.74" width=".31" height=".31" transform="translate(-71.11 292.1) rotate(-45)"/>
</svg>